<?xml version="1.0" encoding="UTF-8" standalone="no"?>
<!-- Generator: Adobe Illustrator 19.1.0, SVG Export Plug-In . SVG Version: 6.00 Build 0)  -->

<svg
   version="1.1"
   id="Layer_1"
   x="0px"
   y="0px"
   viewBox="0 0 199.62199 213.51199"
   xml:space="preserve"
   sodipodi:docname="famecipe-updated.svg"
   inkscape:version="1.2.1 (9c6d41e410, 2022-07-14)"
   width="199.62199"
   height="213.51199"
   xmlns:inkscape="http://www.inkscape.org/namespaces/inkscape"
   xmlns:sodipodi="http://sodipodi.sourceforge.net/DTD/sodipodi-0.dtd"
   xmlns="http://www.w3.org/2000/svg"
   xmlns:svg="http://www.w3.org/2000/svg"><defs
   id="defs11" /><sodipodi:namedview
   id="namedview9"
   pagecolor="#ffffff"
   bordercolor="#666666"
   borderopacity="1.0"
   inkscape:pageshadow="2"
   inkscape:pageopacity="0.0"
   inkscape:pagecheckerboard="0"
   showgrid="false"
   inkscape:zoom="2.8284272"
   inkscape:cx="83.438598"
   inkscape:cy="132.22896"
   inkscape:window-width="1920"
   inkscape:window-height="974"
   inkscape:window-x="-11"
   inkscape:window-y="-11"
   inkscape:window-maximized="1"
   inkscape:current-layer="Layer_1"
   inkscape:object-nodes="true"
   inkscape:showpageshadow="2"
   inkscape:deskcolor="#d1d1d1" />
<g
   id="g6"
   style="fill:#000000;fill-opacity:1">
	
	
</g>
<path
   id="path3150"
   style="fill:#282828;fill-opacity:1;fill-rule:evenodd;stroke:#282828;stroke-width:5;stroke-opacity:1;paint-order:stroke fill markers"
   d="m 83.293537,111.26177 c 0.75425,-1.96242 15.794733,-38.060013 16.098293,-38.636397 0.2748,-0.521765 1.93026,3.173228 8.41222,18.776074 4.43854,10.684133 8.17344,19.699503 8.29977,20.034173 0.21676,0.57424 -0.70845,0.60848 -16.44065,0.60848 H 82.992837 Z m 36.017283,56.60936 c -4.542,-0.86854 -8.39476,-2.72461 -11.55668,-5.56745 l -1.81037,-1.62768 -1.6614,1.26888 c -2.21417,1.69106 -5.99565,3.47835 -8.97281,4.24094 -2.177933,0.55787 -4.297343,0.62098 -20.852706,0.62098 -16.563161,0 -18.674722,-0.0629 -20.862309,-0.62189 -3.163954,-0.80842 -7.523978,-2.95634 -9.820014,-4.83773 l -1.822797,-1.49362 10.711103,-0.0918 10.711103,-0.0918 5.836283,-14.59875 5.836284,-14.59876 h 24.618973 24.61897 l 5.83823,14.60362 5.83822,14.60362 h 11.06419 11.06419 l -0.47983,-1.13004 c -0.2639,-0.62153 -8.80791,-19.82789 -18.98668,-42.68081 C 128.44401,93.015937 115.57498,64.108598 110.02495,51.63033 104.47491,39.152061 99.81646,28.942569 99.67283,28.942569 c -0.14363,0 -10.447053,22.883345 -22.896503,50.851878 C 64.326882,107.76298 51.265562,137.09865 47.751171,144.98481 l -6.3898,14.33849 -1.492345,-1.99496 c -0.82079,-1.09722 -2.090824,-3.24669 -2.822298,-4.77659 -2.501314,-5.23158 -2.438493,-4.02373 -2.314814,-44.50626 0.102635,-33.594607 0.154767,-36.307761 0.734458,-38.22427 2.090726,-6.912132 6.751715,-12.508998 12.912596,-15.505313 5.003827,-2.433588 5.5658,-2.502172 21.945243,-2.678192 l 14.643436,-0.157366 0.20029,-3.880156 c 0.30675,-5.942623 1.67826,-9.91505 4.94578,-14.324956 3.08768,-4.16718 8.447083,-7.703333 13.724223,-9.055305 2.87406,-0.736316 25.17878,-1.123029 30.99587,-0.537398 12.02726,1.210836 20.92143,9.647193 22.52603,21.366558 0.24441,1.785098 0.3724,14.84428 0.3724,37.997695 0,31.424783 0.0584,35.300243 0.53477,35.483043 0.86757,0.33292 4.24587,4.87943 5.346,7.19464 1.99667,4.20196 2.26365,5.90017 2.27696,14.48375 0.0139,8.9368 -0.23218,10.35477 -2.654,15.29471 -2.76812,5.64632 -8.46043,10.20215 -15.06562,12.05776 -2.83546,0.79657 -25.06673,1.03571 -28.85953,0.31044 z M 109.57564,23.378594 c -13.67664,0 -24.687503,11.010866 -24.687503,24.6875 v 3.476562 H 59.157665 c -13.676654,0 -24.6875,11.010847 -24.6875,24.6875 v 66.064454 c -1e-6,13.67666 11.010846,24.6875 24.6875,24.6875 h 30.597652 c 6.224833,0 11.881393,-2.29922 16.214853,-6.07422 4.30331,4.62834 10.44742,7.51954 17.29492,7.51953 h 19.24609 c 13.0744,0 23.59961,-10.5252 23.59961,-23.5996 v -9.04102 c 0,-7.24448 -3.23963,-13.69725 -8.3457,-18.01953 V 48.066094 c 0,-13.676634 -11.01087,-24.6875 -24.6875,-24.6875 z M 99.66548,6.786797 v 0 0 l -93.100003,33.2 14.2,123.100003 78.900003,43.7 v 0 0 l 78.9,-43.7 14.2,-123.100003 z m 58.1,152.600003 h -21.7 v 0 l -11.7,-29.2 h -24.7 v 0 0 H 74.965477 l -11.7,29.2 v 0 h -21.7 v 0 L 99.66548,28.886797 v 0 0 0 0 z m -75.100003,-47.2 H 99.66548 v 0 0 h 17 l -17,-40.900003 z" /><rect
   style="fill:#ffffff;fill-rule:evenodd;stroke:none;stroke-width:5;paint-order:stroke fill markers"
   id="rect73"
   width="72.691536"
   height="0"
   x="88.708466"
   y="182.88316"
   ry="0" /><path
   id="rect77"
   style="fill:#ffffff;fill-rule:evenodd;stroke:none;stroke-width:5;paint-order:stroke fill markers"
   d="m 99.66548,51.286797 a 29.413164,21.983465 0 0 0 -27.043613,13.37169 29.413164,21.983465 0 0 0 -1.88176,-0.0507 29.413164,21.983465 0 0 0 -29.414003,21.98248 29.413164,21.983465 0 0 0 28.855793,21.956353 v 28.11527 h 58.823253 0.003 v -28.11527 h -0.003 v -0.0215 a 29.413164,21.983465 0 0 0 29.19736,-21.971753 29.413164,21.983465 0 0 0 -29.41241,-21.98402 29.413164,21.983465 0 0 0 -2.06362,0.1014 29.413164,21.983465 0 0 0 -27.061,-13.38398 z" /><rect
   style="fill:#282828;fill-opacity:1;fill-rule:evenodd;stroke:none;stroke-width:5;paint-order:stroke fill markers"
   id="rect1095-8"
   width="5"
   height="14.817141"
   x="85.181473"
   y="121.9448" /><rect
   style="fill:#282828;fill-opacity:1;fill-rule:evenodd;stroke:none;stroke-width:5;paint-order:stroke fill markers"
   id="rect1095"
   width="5"
   height="14.817141"
   x="109.00848"
   y="121.9448" /><rect
   style="display:inline;fill:#ffffff;fill-opacity:1;fill-rule:evenodd;stroke:none;stroke-width:5;stroke-linecap:butt;stroke-linejoin:miter;stroke-opacity:1;paint-order:stroke fill markers"
   id="rect147"
   width="58.826488"
   height="6.4829082"
   x="70.181648"
   y="141.6618"
   ry="0" /><ellipse
   style="fill:#ffffff;fill-opacity:1;fill-rule:evenodd;stroke:#282828;stroke-width:8;stroke-linecap:butt;stroke-linejoin:miter;stroke-miterlimit:4;stroke-dasharray:none;stroke-opacity:1;paint-order:stroke fill markers"
   id="path2502"
   cx="99.693466"
   cy="75.32296"
   rx="27.972"
   ry="21.764154" /><rect
   style="fill:#ffffff;fill-opacity:1;fill-rule:evenodd;stroke:none;stroke-width:5;stroke-linecap:butt;stroke-linejoin:miter;stroke-opacity:1;paint-order:stroke fill markers"
   id="rect2741"
   width="74.599762"
   height="34.117901"
   x="62.877045"
   y="69.629799" /></svg>
